<?xml version="1.0" ?>

<!-- Uploaded to: SVG Repo, www.svgrepo.com, Generator: SVG Repo Mixer Tools -->
<svg viewBox="0 0 520 520" xmlns="http://www.w3.org/2000/svg">

<rect x="487" y="0" width="32" height="520" fill="#A61800"/>
<rect x="455" y="0" width="32" height="520" fill="#B70700"/>
<rect x="422" y="0" width="32" height="520" fill="#AF000F"/>
<rect x="390" y="0" width="32" height="520" fill="#970027"/>
<rect x="357" y="0" width="32" height="520" fill="#7F003F"/>
<rect x="325" y="0" width="32" height="520" fill="#670058"/>
<rect x="292" y="0" width="32" height="520" fill="#4F0070"/>
<rect x="260" y="0" width="32" height="520" fill="#370087"/>
<rect x="227" y="0" width="32" height="520" fill="#1F009F"/>
<rect x="195" y="0" width="32" height="520" fill="#0700B7"/>
<rect x="162" y="0" width="32" height="520" fill="#001F9F"/>
<rect x="130" y="0" width="32" height="520" fill="#004F6F"/>
<rect x="97" y="0" width="32" height="520" fill="#007F3F"/>
<rect x="65" y="0" width="32" height="520" fill="#009727"/>
<rect x="32" y="0" width="32" height="520" fill="#00AF0F"/>
<rect x="0" y="0" width="32" height="520" fill="#10B700"/>
</svg>