<?xml version="1.0" ?>

<!-- Uploaded to: SVG Repo, www.svgrepo.com, Generator: SVG Repo Mixer Tools -->
<svg viewBox="0 0 520 520" xmlns="http://www.w3.org/2000/svg">

<rect x="0" y="0" width="520" height="520" fill="#000"/>
<rect x="487" y="487" width="32" height="32" fill="#BEA600"/>
<rect x="455" y="487" width="32" height="32" fill="#BEBE04"/>
<rect x="422" y="487" width="32" height="32" fill="#BEBE18"/>
<rect x="390" y="487" width="32" height="32" fill="#BEBE39"/>
<rect x="357" y="487" width="32" height="32" fill="#BEBE21"/>
<rect x="325" y="487" width="32" height="32" fill="#BE9900"/>
<rect x="292" y="487" width="32" height="32" fill="#BE5A00"/>
<rect x="260" y="487" width="32" height="32" fill="#BE4200"/>
<rect x="227" y="487" width="32" height="32" fill="#BE6D00"/>
<rect x="195" y="487" width="32" height="32" fill="#BEA200"/>
<rect x="162" y="487" width="32" height="32" fill="#BEA600"/>
<rect x="130" y="487" width="32" height="32" fill="#BE6D00"/>
<rect x="97" y="487" width="32" height="32" fill="#BE2100"/>
<rect x="65" y="487" width="32" height="32" fill="#BE1800"/>
<rect x="32" y="487" width="32" height="32" fill="#BE4200"/>
<rect x="0" y="487" width="32" height="32" fill="#BE8E00"/>
<rect x="487" y="455" width="32" height="32" fill="#BE9A00"/>
<rect x="455" y="455" width="32" height="32" fill="#BEBE15"/>
<rect x="422" y="455" width="32" height="32" fill="#BEBE45"/>
<rect x="390" y="455" width="32" height="32" fill="#BEBE66"/>
<rect x="357" y="455" width="32" height="32" fill="#BEBE3A"/>
<rect x="325" y="455" width="32" height="32" fill="#BEA900"/>
<rect x="292" y="455" width="32" height="32" fill="#BE6100"/>
<rect x="260" y="455" width="32" height="32" fill="#BE3F00"/>
<rect x="227" y="455" width="32" height="32" fill="#BE5200"/>
<rect x="195" y="455" width="32" height="32" fill="#BE6100"/>
<rect x="162" y="455" width="32" height="32" fill="#BE4900"/>
<rect x="130" y="455" width="32" height="32" fill="#BE1900"/>
<rect x="97" y="455" width="32" height="32" fill="#B80000"/>
<rect x="65" y="455" width="32" height="32" fill="#A90000"/>
<rect x="32" y="455" width="32" height="32" fill="#AE0000"/>
<rect x="0" y="455" width="32" height="32" fill="#BD0000"/>
<rect x="487" y="422" width="32" height="32" fill="#BE3900"/>
<rect x="455" y="422" width="32" height="32" fill="#BE7B00"/>
<rect x="422" y="422" width="32" height="32" fill="#BEBE04"/>
<rect x="390" y="422" width="32" height="32" fill="#BEBE42"/>
<rect x="357" y="422" width="32" height="32" fill="#BEBE1C"/>
<rect x="325" y="422" width="32" height="32" fill="#BE8500"/>
<rect x="292" y="422" width="32" height="32" fill="#BE3D00"/>
<rect x="260" y="422" width="32" height="32" fill="#BE2100"/>
<rect x="227" y="422" width="32" height="32" fill="#BE2A00"/>
<rect x="195" y="422" width="32" height="32" fill="#BE1C00"/>
<rect x="162" y="422" width="32" height="32" fill="#A60000"/>
<rect x="130" y="422" width="32" height="32" fill="#8A0000"/>
<rect x="97" y="422" width="32" height="32" fill="#A20000"/>
<rect x="65" y="422" width="32" height="32" fill="#B10000"/>
<rect x="32" y="422" width="32" height="32" fill="#8E0000"/>
<rect x="0" y="422" width="32" height="32" fill="#550000"/>
<rect x="487" y="390" width="32" height="32" fill="#750000"/>
<rect x="455" y="390" width="32" height="32" fill="#B80000"/>
<rect x="422" y="390" width="32" height="32" fill="#BE4E00"/>
<rect x="390" y="390" width="32" height="32" fill="#BE9600"/>
<rect x="357" y="390" width="32" height="32" fill="#BE7900"/>
<rect x="325" y="390" width="32" height="32" fill="#BE2400"/>
<rect x="292" y="390" width="32" height="32" fill="#9F0000"/>
<rect x="260" y="390" width="32" height="32" fill="#9F0000"/>
<rect x="227" y="390" width="32" height="32" fill="#BE0C00"/>
<rect x="195" y="390" width="32" height="32" fill="#BE1000"/>
<rect x="162" y="390" width="32" height="32" fill="#960000"/>
<rect x="130" y="390" width="32" height="32" fill="#840000"/>
<rect x="97" y="390" width="32" height="32" fill="#B20000"/>
<rect x="65" y="390" width="32" height="32" fill="#BE1000"/>
<rect x="32" y="390" width="32" height="32" fill="#A50000"/>
<rect x="0" y="390" width="32" height="32" fill="#490000"/>
<rect x="487" y="357" width="32" height="32" fill="#250000"/>
<rect x="455" y="357" width="32" height="32" fill="#600000"/>
<rect x="422" y="357" width="32" height="32" fill="#AC0000"/>
<rect x="390" y="357" width="32" height="32" fill="#BE3300"/>
<rect x="357" y="357" width="32" height="32" fill="#BE1C00"/>
<rect x="325" y="357" width="32" height="32" fill="#8A0000"/>
<rect x="292" y="357" width="32" height="32" fill="#4C0000"/>
<rect x="260" y="357" width="32" height="32" fill="#600000"/>
<rect x="227" y="357" width="32" height="32" fill="#AC0000"/>
<rect x="195" y="357" width="32" height="32" fill="#BE0900"/>
<rect x="162" y="357" width="32" height="32" fill="#9D0000"/>
<rect x="130" y="357" width="32" height="32" fill="#8A0000"/>
<rect x="97" y="357" width="32" height="32" fill="#BE0000"/>
<rect x="65" y="357" width="32" height="32" fill="#BE1C00"/>
<rect x="32" y="357" width="32" height="32" fill="#BE0000"/>
<rect x="0" y="357" width="32" height="32" fill="#690000"/>
<rect x="487" y="325" width="32" height="32" fill="#2D0000"/>
<rect x="455" y="325" width="32" height="32" fill="#4E0000"/>
<rect x="422" y="325" width="32" height="32" fill="#750000"/>
<rect x="390" y="325" width="32" height="32" fill="#A90000"/>
<rect x="357" y="325" width="32" height="32" fill="#AE0000"/>
<rect x="325" y="325" width="32" height="32" fill="#700000"/>
<rect x="292" y="325" width="32" height="32" fill="#2D0000"/>
<rect x="260" y="325" width="32" height="32" fill="#2D0000"/>
<rect x="227" y="325" width="32" height="32" fill="#610000"/>
<rect x="195" y="325" width="32" height="32" fill="#7E0000"/>
<rect x="162" y="325" width="32" height="32" fill="#610000"/>
<rect x="130" y="325" width="32" height="32" fill="#580000"/>
<rect x="97" y="325" width="32" height="32" fill="#8D0000"/>
<rect x="65" y="325" width="32" height="32" fill="#B80000"/>
<rect x="32" y="325" width="32" height="32" fill="#BD0000"/>
<rect x="0" y="325" width="32" height="32" fill="#910000"/>
<rect x="487" y="292" width="32" height="32" fill="#6D0000"/>
<rect x="455" y="292" width="32" height="32" fill="#690000"/>
<rect x="422" y="292" width="32" height="32" fill="#550000"/>
<rect x="390" y="292" width="32" height="32" fill="#760000"/>
<rect x="357" y="292" width="32" height="32" fill="#990000"/>
<rect x="325" y="292" width="32" height="32" fill="#7B0000"/>
<rect x="292" y="292" width="32" height="32" fill="#330000"/>
<rect x="260" y="292" width="32" height="32" fill="#040000"/>
<rect x="195" y="292" width="32" height="32" fill="#0D0000"/>
<rect x="97" y="292" width="32" height="32" fill="#120000"/>
<rect x="65" y="292" width="32" height="32" fill="#4C0000"/>
<rect x="32" y="292" width="32" height="32" fill="#7B0000"/>
<rect x="0" y="292" width="32" height="32" fill="#9D0000"/>
<rect x="487" y="260" width="32" height="32" fill="#580000"/>
<rect x="455" y="260" width="32" height="32" fill="#3A0000"/>
<rect x="422" y="260" width="32" height="32" fill="#100000"/>
<rect x="390" y="260" width="32" height="32" fill="#240000"/>
<rect x="357" y="260" width="32" height="32" fill="#5D0000"/>
<rect x="325" y="260" width="32" height="32" fill="#490000"/>
<rect x="292" y="260" width="32" height="32" fill="#010000"/>
<rect x="32" y="260" width="32" height="32" fill="#2D0000"/>
<rect x="0" y="260" width="32" height="32" fill="#840000"/>
<rect x="162" y="227" width="32" height="32" fill="#040000"/>
<rect x="32" y="227" width="32" height="32" fill="#0D0000"/>
<rect x="0" y="227" width="32" height="32" fill="#690000"/>
<rect x="195" y="195" width="32" height="32" fill="#1E0000"/>
<rect x="162" y="195" width="32" height="32" fill="#3F0000"/>
<rect x="130" y="195" width="32" height="32" fill="#310000"/>
<rect x="97" y="195" width="32" height="32" fill="#060000"/>
<rect x="32" y="195" width="32" height="32" fill="#0C0000"/>
<rect x="0" y="195" width="32" height="32" fill="#310000"/>
<rect x="162" y="162" width="32" height="32" fill="#2E0000"/>
<rect x="130" y="162" width="32" height="32" fill="#600000"/>
<rect x="97" y="162" width="32" height="32" fill="#510000"/>
<rect x="65" y="162" width="32" height="32" fill="#1C0000"/>
<rect x="130" y="130" width="32" height="32" fill="#190000"/>
<rect x="97" y="130" width="32" height="32" fill="#2D0000"/>
</svg>