<?xml version="1.0" ?>

<!-- Uploaded to: SVG Repo, www.svgrepo.com, Generator: SVG Repo Mixer Tools -->
<svg viewBox="0 0 520 520" xmlns="http://www.w3.org/2000/svg">

<rect x="487" y="487" width="32" height="32" fill="#04545b"/>
<rect x="455" y="487" width="32" height="32" fill="#019446"/>
<rect x="422" y="487" width="32" height="32" fill="#00bb3f"/>
<rect x="390" y="487" width="32" height="32" fill="#00b43f"/>
<rect x="357" y="487" width="32" height="32" fill="#00974e"/>
<rect x="325" y="487" width="32" height="32" fill="#008754"/>
<rect x="292" y="487" width="32" height="32" fill="#00785a"/>
<rect x="260" y="487" width="32" height="32" fill="#00845a"/>
<rect x="227" y="487" width="32" height="32" fill="#009354"/>
<rect x="195" y="487" width="32" height="32" fill="#01b14e"/>
<rect x="162" y="487" width="32" height="32" fill="#04be4e"/>
<rect x="130" y="487" width="32" height="32" fill="#0aa555"/>
<rect x="97" y="487" width="32" height="32" fill="#156684"/>
<rect x="65" y="487" width="32" height="32" fill="#2222b8"/>
<rect x="32" y="487" width="32" height="32" fill="#340427"/>
<rect x="0" y="487" width="32" height="32" fill="#4e0000"/>
<rect x="487" y="455" width="32" height="32" fill="#226c6c"/>
<rect x="455" y="455" width="32" height="32" fill="#15ab5a"/>
<rect x="422" y="455" width="32" height="32" fill="#0abb5a"/>
<rect x="390" y="455" width="32" height="32" fill="#04a85b"/>
<rect x="357" y="455" width="32" height="32" fill="#01826c"/>
<rect x="325" y="455" width="32" height="32" fill="#006c78"/>
<rect x="292" y="455" width="32" height="32" fill="#005b8a"/>
<rect x="260" y="455" width="32" height="32" fill="#006a7e"/>
<rect x="227" y="455" width="32" height="32" fill="#007b78"/>
<rect x="195" y="455" width="32" height="32" fill="#009c6c"/>
<rect x="162" y="455" width="32" height="32" fill="#00b866"/>
<rect x="130" y="455" width="32" height="32" fill="#00b46a"/>
<rect x="97" y="455" width="32" height="32" fill="#018284"/>
<rect x="65" y="455" width="32" height="32" fill="#0434be"/>
<rect x="32" y="455" width="32" height="32" fill="#0a0a37"/>
<rect x="0" y="455" width="32" height="32" fill="#150001"/>
<rect x="487" y="422" width="32" height="32" fill="#5a877e"/>
<rect x="455" y="422" width="32" height="32" fill="#3fb773"/>
<rect x="422" y="422" width="32" height="32" fill="#2bb273"/>
<rect x="390" y="422" width="32" height="32" fill="#1b937e"/>
<rect x="357" y="422" width="32" height="32" fill="#0f6690"/>
<rect x="325" y="422" width="32" height="32" fill="#0754a3"/>
<rect x="292" y="422" width="32" height="32" fill="#0343b4"/>
<rect x="260" y="422" width="32" height="32" fill="#0151af"/>
<rect x="227" y="422" width="32" height="32" fill="#0060a3"/>
<rect x="195" y="422" width="32" height="32" fill="#00878b"/>
<rect x="162" y="422" width="32" height="32" fill="#00af84"/>
<rect x="130" y="422" width="32" height="32" fill="#00bd82"/>
<rect x="97" y="422" width="32" height="32" fill="#009790"/>
<rect x="65" y="422" width="32" height="32" fill="#004eba"/>
<rect x="32" y="422" width="32" height="32" fill="#011561"/>
<rect x="0" y="422" width="32" height="32" fill="#030101"/>
<rect x="487" y="390" width="32" height="32" fill="#949c90"/>
<rect x="455" y="390" width="32" height="32" fill="#7ebe90"/>
<rect x="422" y="390" width="32" height="32" fill="#61a390"/>
<rect x="390" y="390" width="32" height="32" fill="#497b9c"/>
<rect x="357" y="390" width="32" height="32" fill="#314eb2"/>
<rect x="325" y="390" width="32" height="32" fill="#213abd"/>
<rect x="292" y="390" width="32" height="32" fill="#132db8"/>
<rect x="260" y="390" width="32" height="32" fill="#0937bd"/>
<rect x="227" y="390" width="32" height="32" fill="#0446bd"/>
<rect x="195" y="390" width="32" height="32" fill="#016cb1"/>
<rect x="162" y="390" width="32" height="32" fill="#0097a3"/>
<rect x="130" y="390" width="32" height="32" fill="#00ba9a"/>
<rect x="97" y="390" width="32" height="32" fill="#00af9c"/>
<rect x="65" y="390" width="32" height="32" fill="#0066ba"/>
<rect x="32" y="390" width="32" height="32" fill="#00227b"/>
<rect x="0" y="390" width="32" height="32" fill="#000404"/>
<rect x="487" y="357" width="32" height="32" fill="#b2b1a3"/>
<rect x="455" y="357" width="32" height="32" fill="#a3b8a3"/>
<rect x="422" y="357" width="32" height="32" fill="#8b8bab"/>
<rect x="390" y="357" width="32" height="32" fill="#7360b4"/>
<rect x="357" y="357" width="32" height="32" fill="#5a34ba"/>
<rect x="325" y="357" width="32" height="32" fill="#3f27af"/>
<rect x="292" y="357" width="32" height="32" fill="#2b1c8a"/>
<rect x="260" y="357" width="32" height="32" fill="#1b2497"/>
<rect x="227" y="357" width="32" height="32" fill="#0f30af"/>
<rect x="195" y="357" width="32" height="32" fill="#0754bd"/>
<rect x="162" y="357" width="32" height="32" fill="#0382b4"/>
<rect x="130" y="357" width="32" height="32" fill="#01b1b1"/>
<rect x="97" y="357" width="32" height="32" fill="#00b8b1"/>
<rect x="65" y="357" width="32" height="32" fill="#0082ba"/>
<rect x="32" y="357" width="32" height="32" fill="#003490"/>
<rect x="0" y="357" width="32" height="32" fill="#000a09"/>
<rect x="487" y="325" width="32" height="32" fill="#bebab4"/>
<rect x="455" y="325" width="32" height="32" fill="#b8afb1"/>
<rect x="422" y="325" width="32" height="32" fill="#af73ba"/>
<rect x="390" y="325" width="32" height="32" fill="#9746ba"/>
<rect x="357" y="325" width="32" height="32" fill="#822297"/>
<rect x="325" y="325" width="32" height="32" fill="#661866"/>
<rect x="292" y="325" width="32" height="32" fill="#4e103d"/>
<rect x="260" y="325" width="32" height="32" fill="#34164e"/>
<rect x="227" y="325" width="32" height="32" fill="#221e66"/>
<rect x="195" y="325" width="32" height="32" fill="#153a9f"/>
<rect x="162" y="325" width="32" height="32" fill="#0a66ba"/>
<rect x="130" y="325" width="32" height="32" fill="#049fba"/>
<rect x="97" y="325" width="32" height="32" fill="#01beb8"/>
<rect x="65" y="325" width="32" height="32" fill="#0097bd"/>
<rect x="32" y="325" width="32" height="32" fill="#004e9f"/>
<rect x="0" y="325" width="32" height="32" fill="#001519"/>
<rect x="487" y="292" width="32" height="32" fill="#babdbd"/>
<rect x="455" y="292" width="32" height="32" fill="#bd9abd"/>
<rect x="422" y="292" width="32" height="32" fill="#b45aba"/>
<rect x="390" y="292" width="32" height="32" fill="#a53097"/>
<rect x="357" y="292" width="32" height="32" fill="#90154e"/>
<rect x="325" y="292" width="32" height="32" fill="#780c24"/>
<rect x="292" y="292" width="32" height="32" fill="#5b0713"/>
<rect x="260" y="292" width="32" height="32" fill="#430c16"/>
<rect x="227" y="292" width="32" height="32" fill="#2d1224"/>
<rect x="195" y="292" width="32" height="32" fill="#1c275b"/>
<rect x="162" y="292" width="32" height="32" fill="#104e9c"/>
<rect x="130" y="292" width="32" height="32" fill="#078aba"/>
<rect x="97" y="292" width="32" height="32" fill="#03b8bd"/>
<rect x="65" y="292" width="32" height="32" fill="#01afbd"/>
<rect x="32" y="292" width="32" height="32" fill="#00669f"/>
<rect x="0" y="292" width="32" height="32" fill="#002228"/>
<rect x="487" y="260" width="32" height="32" fill="#b8b4ba"/>
<rect x="455" y="260" width="32" height="32" fill="#be84b8"/>
<rect x="422" y="260" width="32" height="32" fill="#b73f9c"/>
<rect x="390" y="260" width="32" height="32" fill="#ab1e5b"/>
<rect x="357" y="260" width="32" height="32" fill="#940a12"/>
<rect x="325" y="260" width="32" height="32" fill="#7e0606"/>
<rect x="292" y="260" width="32" height="32" fill="#610301"/>
<rect x="260" y="260" width="32" height="32" fill="#490601"/>
<rect x="227" y="260" width="32" height="32" fill="#310904"/>
<rect x="195" y="260" width="32" height="32" fill="#21181e"/>
<rect x="162" y="260" width="32" height="32" fill="#133466"/>
<rect x="130" y="260" width="32" height="32" fill="#0970a3"/>
<rect x="97" y="260" width="32" height="32" fill="#04afb4"/>
<rect x="65" y="260" width="32" height="32" fill="#01b8b4"/>
<rect x="32" y="260" width="32" height="32" fill="#0082a3"/>
<rect x="0" y="260" width="32" height="32" fill="#00343d"/>
<rect x="487" y="227" width="32" height="32" fill="#bda8b4"/>
<rect x="455" y="227" width="32" height="32" fill="#ba6aa8"/>
<rect x="422" y="227" width="32" height="32" fill="#b12b66"/>
<rect x="390" y="227" width="32" height="32" fill="#9c121e"/>
<rect x="357" y="227" width="32" height="32" fill="#870401"/>
<rect x="325" y="227" width="32" height="32" fill="#6c0100"/>
<rect x="292" y="227" width="32" height="32" fill="#540100"/>
<rect x="260" y="227" width="32" height="32" fill="#3a0100"/>
<rect x="227" y="227" width="32" height="32" fill="#270300"/>
<rect x="195" y="227" width="32" height="32" fill="#180c04"/>
<rect x="162" y="227" width="32" height="32" fill="#0c2222"/>
<rect x="130" y="227" width="32" height="32" fill="#065570"/>
<rect x="97" y="227" width="32" height="32" fill="#01979f"/>
<rect x="65" y="227" width="32" height="32" fill="#00bea8"/>
<rect x="32" y="227" width="32" height="32" fill="#00979a"/>
<rect x="0" y="227" width="32" height="32" fill="#004e51"/>
<rect x="487" y="195" width="32" height="32" fill="#ba939f"/>
<rect x="455" y="195" width="32" height="32" fill="#b15184"/>
<rect x="422" y="195" width="32" height="32" fill="#9f1b2d"/>
<rect x="390" y="195" width="32" height="32" fill="#8a0903"/>
<rect x="357" y="195" width="32" height="32" fill="#700100"/>
<rect x="325" y="195" width="32" height="32" fill="#550000"/>
<rect x="292" y="195" width="32" height="32" fill="#3d0000"/>
<rect x="260" y="195" width="32" height="32" fill="#280000"/>
<rect x="227" y="195" width="32" height="32" fill="#190100"/>
<rect x="195" y="195" width="32" height="32" fill="#0d0600"/>
<rect x="162" y="195" width="32" height="32" fill="#061506"/>
<rect x="130" y="195" width="32" height="32" fill="#033d37"/>
<rect x="97" y="195" width="32" height="32" fill="#00827e"/>
<rect x="65" y="195" width="32" height="32" fill="#00b893"/>
<rect x="32" y="195" width="32" height="32" fill="#00af8b"/>
<rect x="0" y="195" width="32" height="32" fill="#006654"/>
<rect x="487" y="162" width="32" height="32" fill="#a87b82"/>
<rect x="455" y="162" width="32" height="32" fill="#933749"/>
<rect x="422" y="162" width="32" height="32" fill="#7b0f09"/>
<rect x="390" y="162" width="32" height="32" fill="#600300"/>
<rect x="357" y="162" width="32" height="32" fill="#460000"/>
<rect x="325" y="162" width="32" height="32" fill="#300000"/>
<rect x="292" y="162" width="32" height="32" fill="#1e0000"/>
<rect x="260" y="162" width="32" height="32" fill="#120000"/>
<rect x="227" y="162" width="32" height="32" fill="#090000"/>
<rect x="195" y="162" width="32" height="32" fill="#030100"/>
<rect x="162" y="162" width="32" height="32" fill="#010a00"/>
<rect x="130" y="162" width="32" height="32" fill="#00280d"/>
<rect x="97" y="162" width="32" height="32" fill="#006649"/>
<rect x="65" y="162" width="32" height="32" fill="#00af78"/>
<rect x="32" y="162" width="32" height="32" fill="#00b878"/>
<rect x="0" y="162" width="32" height="32" fill="#008254"/>
<rect x="487" y="130" width="32" height="32" fill="#7b605b"/>
<rect x="455" y="130" width="32" height="32" fill="#60241c"/>
<rect x="422" y="130" width="32" height="32" fill="#460700"/>
<rect x="390" y="130" width="32" height="32" fill="#300100"/>
<rect x="357" y="130" width="32" height="32" fill="#1e0001"/>
<rect x="325" y="130" width="32" height="32" fill="#120001"/>
<rect x="292" y="130" width="32" height="32" fill="#090003"/>
<rect x="260" y="130" width="32" height="32" fill="#030004"/>
<rect x="227" y="130" width="32" height="32" fill="#010004"/>
<rect x="195" y="130" width="32" height="32" fill="#000001"/>
<rect x="162" y="130" width="32" height="32" fill="#000400"/>
<rect x="130" y="130" width="32" height="32" fill="#001900"/>
<rect x="97" y="130" width="32" height="32" fill="#004e1e"/>
<rect x="65" y="130" width="32" height="32" fill="#009755"/>
<rect x="32" y="130" width="32" height="32" fill="#00be60"/>
<rect x="0" y="130" width="32" height="32" fill="#009749"/>
<rect x="487" y="97" width="32" height="32" fill="#3a4631"/>
<rect x="455" y="97" width="32" height="32" fill="#271604"/>
<rect x="422" y="97" width="32" height="32" fill="#180300"/>
<rect x="390" y="97" width="32" height="32" fill="#0c0000"/>
<rect x="357" y="97" width="32" height="32" fill="#060004"/>
<rect x="325" y="97" width="32" height="32" fill="#010007"/>
<rect x="292" y="97" width="32" height="32" fill="#00000a"/>
<rect x="260" y="97" width="32" height="32" fill="#00000d"/>
<rect x="227" y="97" width="32" height="32" fill="#00000d"/>
<rect x="195" y="97" width="32" height="32" fill="#00000a"/>
<rect x="162" y="97" width="32" height="32" fill="#000101"/>
<rect x="130" y="97" width="32" height="32" fill="#000d00"/>
<rect x="97" y="97" width="32" height="32" fill="#003406"/>
<rect x="65" y="97" width="32" height="32" fill="#01822d"/>
<rect x="32" y="97" width="32" height="32" fill="#03b843"/>
<rect x="0" y="97" width="32" height="32" fill="#09af3f"/>
<rect x="487" y="65" width="32" height="32" fill="#0f3010"/>
<rect x="455" y="65" width="32" height="32" fill="#070c00"/>
<rect x="422" y="65" width="32" height="32" fill="#030100"/>
<rect x="390" y="65" width="32" height="32" fill="#010006"/>
<rect x="357" y="65" width="32" height="32" fill="#00000c"/>
<rect x="325" y="65" width="32" height="32" fill="#00000c"/>
<rect x="292" y="65" width="32" height="32" fill="#00000c"/>
<rect x="260" y="65" width="32" height="32" fill="#000015"/>
<rect x="227" y="65" width="32" height="32" fill="#00001e"/>
<rect x="195" y="65" width="32" height="32" fill="#000019"/>
<rect x="162" y="65" width="32" height="32" fill="#01000c"/>
<rect x="130" y="65" width="32" height="32" fill="#030600"/>
<rect x="97" y="65" width="32" height="32" fill="#072200"/>
<rect x="65" y="65" width="32" height="32" fill="#0f6610"/>
<rect x="32" y="65" width="32" height="32" fill="#1baf2b"/>
<rect x="0" y="65" width="32" height="32" fill="#2bb82b"/>
<rect x="487" y="32" width="32" height="32" fill="#011e03"/>
<rect x="455" y="32" width="32" height="32" fill="#000600"/>
<rect x="422" y="32" width="32" height="32" fill="#000004"/>
<rect x="390" y="32" width="32" height="32" fill="#00000f"/>
<rect x="357" y="32" width="32" height="32" fill="#000013"/>
<rect x="325" y="32" width="32" height="32" fill="#000013"/>
<rect x="292" y="32" width="32" height="32" fill="#00000f"/>
<rect x="260" y="32" width="32" height="32" fill="#01001c"/>
<rect x="227" y="32" width="32" height="32" fill="#030022"/>
<rect x="195" y="32" width="32" height="32" fill="#070037"/>
<rect x="162" y="32" width="32" height="32" fill="#0f0030"/>
<rect x="130" y="32" width="32" height="32" fill="#1b0309"/>
<rect x="97" y="32" width="32" height="32" fill="#2b1500"/>
<rect x="65" y="32" width="32" height="32" fill="#3f4e03"/>
<rect x="32" y="32" width="32" height="32" fill="#5a9716"/>
<rect x="0" y="32" width="32" height="32" fill="#73be1c"/>
<rect x="487" y="0" width="32" height="32" fill="#001200"/>
<rect x="455" y="0" width="32" height="32" fill="#000100"/>
<rect x="422" y="0" width="32" height="32" fill="#000012"/>
<rect x="390" y="0" width="32" height="32" fill="#000021"/>
<rect x="357" y="0" width="32" height="32" fill="#01001b"/>
<rect x="325" y="0" width="32" height="32" fill="#030012"/>
<rect x="292" y="0" width="32" height="32" fill="#07000d"/>
<rect x="260" y="0" width="32" height="32" fill="#0f001b"/>
<rect x="227" y="0" width="32" height="32" fill="#1b002d"/>
<rect x="195" y="0" width="32" height="32" fill="#2b0046"/>
<rect x="162" y="0" width="32" height="32" fill="#3f0051"/>
<rect x="130" y="0" width="32" height="32" fill="#5a0027"/>
<rect x="97" y="0" width="32" height="32" fill="#730a01"/>
<rect x="65" y="0" width="32" height="32" fill="#8b3400"/>
<rect x="32" y="0" width="32" height="32" fill="#a38207"/>
<rect x="0" y="0" width="32" height="32" fill="#b2b80f"/>
</svg>