<?xml version="1.0" ?>

<!-- Uploaded to: SVG Repo, www.svgrepo.com, Generator: SVG Repo Mixer Tools -->
<svg viewBox="0 0 520 520" xmlns="http://www.w3.org/2000/svg">

<rect x="0" y="0" width="520" height="520" fill="#000000"/>
<rect x="97" y="455" width="32" height="32" fill="#0d1800"/>
<rect x="162" y="422" width="32" height="32" fill="#0d2100"/>
<rect x="65" y="422" width="32" height="32" fill="#180600"/>
<rect x="390" y="390" width="32" height="32" fill="#005406"/>
<rect x="227" y="390" width="32" height="32" fill="#004515"/>
<rect x="422" y="357" width="32" height="32" fill="#001512"/>
<rect x="227" y="325" width="32" height="32" fill="#00360f"/>
<rect x="390" y="292" width="32" height="32" fill="#1e0027"/>
<rect x="325" y="292" width="32" height="32" fill="#241500"/>
<rect x="0" y="292" width="32" height="32" fill="#000693"/>
<rect x="422" y="260" width="32" height="32" fill="#1b2800"/>
<rect x="32" y="260" width="32" height="32" fill="#1e0027"/>
<rect x="195" y="227" width="32" height="32" fill="#1e0900"/>
<rect x="130" y="227" width="32" height="32" fill="#001b18"/>
<rect x="65" y="227" width="32" height="32" fill="#610013"/>
<rect x="487" y="195" width="32" height="32" fill="#750100"/>
<rect x="292" y="195" width="32" height="32" fill="#2a0000"/>
<rect x="227" y="195" width="32" height="32" fill="#007600"/>
<rect x="162" y="195" width="32" height="32" fill="#160000"/>
<rect x="32" y="195" width="32" height="32" fill="#270000"/>
<rect x="0" y="195" width="32" height="32" fill="#150900"/>
<rect x="195" y="162" width="32" height="32" fill="#220004"/>
<rect x="195" y="130" width="32" height="32" fill="#003113"/>
<rect x="97" y="97" width="32" height="32" fill="#000900"/>
<rect x="260" y="32" width="32" height="32" fill="#106f00"/>
<rect x="0" y="0" width="32" height="32" fill="#3d7b00"/>
</svg>