<?xml version="1.0" ?>

<!-- Uploaded to: SVG Repo, www.svgrepo.com, Generator: SVG Repo Mixer Tools -->
<svg viewBox="0 0 520 520" xmlns="http://www.w3.org/2000/svg">

<rect x="0" y="0" width="520" height="520" fill="#000000"/>
<rect x="227" y="487" width="32" height="32" fill="#703d00"/>
<rect x="195" y="487" width="32" height="32" fill="#0c0600"/>
<rect x="162" y="487" width="32" height="32" fill="#703d00"/>
<rect x="195" y="455" width="32" height="32" fill="#703d00"/>
<rect x="0" y="227" width="32" height="32" fill="#016f3c"/>
<rect x="357" y="195" width="32" height="32" fill="#828282"/>
<rect x="325" y="195" width="32" height="32" fill="#9c9c9c"/>
<rect x="292" y="195" width="32" height="32" fill="#acacac"/>
<rect x="32" y="195" width="32" height="32" fill="#006f3a"/>
<rect x="0" y="195" width="32" height="32" fill="#00371b"/>
<rect x="390" y="162" width="32" height="32" fill="#69696a"/>
<rect x="0" y="162" width="32" height="32" fill="#006f3a"/>

<rect x="32" y="400" width="32" height="32" fill="#6f1200"/>
<rect x="64" y="368" width="32" height="32" fill="#6f1200"/>
<rect x="64" y="400" width="32" height="32" fill="#330c04"/>
<rect x="64" y="432" width="32" height="32" fill="#6f1200"/>
<rect x="96" y="400" width="32" height="32" fill="#6f1200"/>

<rect x="487" y="130" width="32" height="32" fill="#000039"/>
<rect x="455" y="130" width="32" height="32" fill="#191972"/>
<rect x="422" y="130" width="32" height="32" fill="#5b5b7b"/>
<rect x="487" y="97" width="32" height="32" fill="#0c0a63"/>
<rect x="455" y="97" width="32" height="32" fill="#4b4b8b"/>
<rect x="422" y="97" width="32" height="32" fill="#28287f"/>
<rect x="390" y="97" width="32" height="32" fill="#45455e"/>
<rect x="357" y="97" width="32" height="32" fill="#48484e"/>
<rect x="325" y="97" width="32" height="32" fill="#434343"/>
<rect x="292" y="97" width="32" height="32" fill="#3c3c3c"/>
<rect x="260" y="97" width="32" height="32" fill="#363636"/>
<rect x="227" y="97" width="32" height="32" fill="#37342e"/>
<rect x="195" y="97" width="32" height="32" fill="#3d3a2a"/>
<rect x="162" y="97" width="32" height="32" fill="#2b2a24"/>
<rect x="130" y="97" width="32" height="32" fill="#21221f"/>
<rect x="97" y="97" width="32" height="32" fill="#1e211b"/>
<rect x="65" y="97" width="32" height="32" fill="#1e1f18"/>
<rect x="32" y="97" width="32" height="32" fill="#191b15"/>
<rect x="0" y="97" width="32" height="32" fill="#151612"/>
<rect x="487" y="65" width="32" height="32" fill="#000039"/>
<rect x="455" y="65" width="32" height="32" fill="#0c0c66"/>
<rect x="422" y="65" width="32" height="32" fill="#00003f"/>
<rect x="195" y="65" width="32" height="32" fill="#766601"/>
<rect x="227" y="32" width="32" height="32" fill="#736400"/>
<rect x="195" y="32" width="32" height="32" fill="#4c3d00"/>
<rect x="162" y="32" width="32" height="32" fill="#736400"/>
<rect x="195" y="0" width="32" height="32" fill="#736400"/>
    <rect fill="#703d00" x="195" y="455" width="32" height="32"/>
</svg>