<?xml version="1.0" ?>

<!-- Uploaded to: SVG Repo, www.svgrepo.com, Generator: SVG Repo Mixer Tools -->
<svg viewBox="0 0 520 520" xmlns="http://www.w3.org/2000/svg">

<rect x="0" y="0" width="520" height="520" fill="#000000"/>
<rect x="390" y="487" width="32" height="32" fill="#3f6600"/>
<rect x="292" y="487" width="32" height="32" fill="#121e00"/>
<rect x="227" y="487" width="32" height="32" fill="#121e00"/>
<rect x="195" y="487" width="32" height="32" fill="#3f6600"/>
<rect x="130" y="487" width="32" height="32" fill="#3f6600"/>
<rect x="487" y="455" width="32" height="32" fill="#73ba00"/>
<rect x="390" y="455" width="32" height="32" fill="#375a00"/>
<rect x="292" y="455" width="32" height="32" fill="#73ba00"/>
<rect x="227" y="455" width="32" height="32" fill="#73ba00"/>
<rect x="195" y="455" width="32" height="32" fill="#375a00"/>
<rect x="130" y="455" width="32" height="32" fill="#375a00"/>
<rect x="487" y="422" width="32" height="32" fill="#3f6600"/>
<rect x="390" y="422" width="32" height="32" fill="#304e00"/>
<rect x="292" y="422" width="32" height="32" fill="#3f6600"/>
<rect x="227" y="422" width="32" height="32" fill="#3f6600"/>
<rect x="195" y="422" width="32" height="32" fill="#304e00"/>
<rect x="130" y="422" width="32" height="32" fill="#304e00"/>
<rect x="487" y="390" width="32" height="32" fill="#375a00"/>
<rect x="390" y="390" width="32" height="32" fill="#284200"/>
<rect x="227" y="390" width="32" height="32" fill="#375a00"/>
<rect x="195" y="390" width="32" height="32" fill="#284200"/>
<rect x="130" y="390" width="32" height="32" fill="#284200"/>
<rect x="390" y="357" width="32" height="32" fill="#213600"/>
<rect x="227" y="357" width="32" height="32" fill="#304e00"/>
<rect x="130" y="357" width="32" height="32" fill="#213600"/>
<rect x="97" y="357" width="32" height="32" fill="#73ba00"/>
<rect x="390" y="325" width="32" height="32" fill="#192a00"/>
<rect x="227" y="325" width="32" height="32" fill="#284200"/>
<rect x="195" y="325" width="32" height="32" fill="#73ba00"/>
<rect x="130" y="325" width="32" height="32" fill="#192a00"/>
<rect x="97" y="325" width="32" height="32" fill="#3f6600"/>
<rect x="390" y="292" width="32" height="32" fill="#121e00"/>
<rect x="227" y="292" width="32" height="32" fill="#213600"/>
<rect x="195" y="292" width="32" height="32" fill="#3f6600"/>
<rect x="130" y="292" width="32" height="32" fill="#121e00"/>
<rect x="97" y="292" width="32" height="32" fill="#375a00"/>
<rect x="487" y="260" width="32" height="32" fill="#73ba00"/>
<rect x="292" y="260" width="32" height="32" fill="#284200"/>
<rect x="195" y="260" width="32" height="32" fill="#192a00"/>
<rect x="97" y="260" width="32" height="32" fill="#121e00"/>
<rect x="0" y="260" width="32" height="32" fill="#73ba00"/>
<rect x="487" y="227" width="32" height="32" fill="#213600"/>
<rect x="292" y="227" width="32" height="32" fill="#213600"/>
<rect x="195" y="227" width="32" height="32" fill="#121e00"/>
<rect x="97" y="227" width="32" height="32" fill="#0a1200"/>
<rect x="0" y="227" width="32" height="32" fill="#3f6600"/>
<rect x="487" y="195" width="32" height="32" fill="#192a00"/>
<rect x="292" y="195" width="32" height="32" fill="#73ba00"/>
<rect x="195" y="195" width="32" height="32" fill="#0a1200"/>
<rect x="487" y="162" width="32" height="32" fill="#121e00"/>
<rect x="292" y="162" width="32" height="32" fill="#3f6600"/>
<rect x="487" y="130" width="32" height="32" fill="#0a1200"/>
<rect x="390" y="130" width="32" height="32" fill="#73ba00"/>
<rect x="292" y="130" width="32" height="32" fill="#375a00"/>
<rect x="292" y="97" width="32" height="32" fill="#304e00"/>
<rect x="292" y="65" width="32" height="32" fill="#284200"/>
<rect x="292" y="32" width="32" height="32" fill="#213600"/>
<rect x="422" y="0" width="32" height="32" fill="#73ba00"/>
<rect x="292" y="0" width="32" height="32" fill="#192a00"/>
</svg>