<?xml version="1.0" ?>

<!-- Uploaded to: SVG Repo, www.svgrepo.com, Generator: SVG Repo Mixer Tools -->
<svg viewBox="0 0 520 520" xmlns="http://www.w3.org/2000/svg">

<rect x="0" y="0" width="520" height="520" fill="#000000"/>
<rect x="487" y="487" width="32" height="32" fill="#bebebe"/>
<rect x="422" y="487" width="32" height="32" fill="#52a8be"/>
<rect x="390" y="487" width="32" height="32" fill="#007eac"/>
<rect x="325" y="487" width="32" height="32" fill="#003473"/>
<rect x="292" y="487" width="32" height="32" fill="#00001e"/>
<rect x="227" y="487" width="32" height="32" fill="#00014b"/>
<rect x="195" y="487" width="32" height="32" fill="#259dbe"/>
<rect x="162" y="487" width="32" height="32" fill="#007fae"/>
<rect x="32" y="487" width="32" height="32" fill="#bebebe"/>
<rect x="0" y="487" width="32" height="32" fill="#9fb8be"/>
<rect x="487" y="455" width="32" height="32" fill="#000018"/>
<rect x="390" y="455" width="32" height="32" fill="#7eb1be"/>
<rect x="357" y="455" width="32" height="32" fill="#33a0be"/>
<rect x="292" y="455" width="32" height="32" fill="#006397"/>
<rect x="195" y="455" width="32" height="32" fill="#00286a"/>
<rect x="130" y="455" width="32" height="32" fill="#8db4be"/>
<rect x="97" y="455" width="32" height="32" fill="#003f7b"/>
<rect x="487" y="422" width="32" height="32" fill="#000f57"/>
<rect x="422" y="422" width="32" height="32" fill="#005b91"/>
<rect x="390" y="422" width="32" height="32" fill="#159abe"/>
<rect x="357" y="422" width="32" height="32" fill="#000037"/>
<rect x="325" y="422" width="32" height="32" fill="#000042"/>
<rect x="292" y="422" width="32" height="32" fill="#00003c"/>
<rect x="227" y="422" width="32" height="32" fill="#000031"/>
<rect x="195" y="422" width="32" height="32" fill="#0085b2"/>
<rect x="162" y="422" width="32" height="32" fill="#002164"/>
<rect x="130" y="422" width="32" height="32" fill="#000043"/>
<rect x="97" y="422" width="32" height="32" fill="#000021"/>
<rect x="32" y="422" width="32" height="32" fill="#000034"/>
<rect x="0" y="422" width="32" height="32" fill="#0085b2"/>
<rect x="487" y="390" width="32" height="32" fill="#00002d"/>
<rect x="422" y="390" width="32" height="32" fill="#00001f"/>
<rect x="390" y="390" width="32" height="32" fill="#4ea6be"/>
<rect x="357" y="390" width="32" height="32" fill="#004c85"/>
<rect x="325" y="390" width="32" height="32" fill="#000010"/>
<rect x="292" y="390" width="32" height="32" fill="#003c79"/>
<rect x="227" y="390" width="32" height="32" fill="#00000a"/>
<rect x="195" y="390" width="32" height="32" fill="#000043"/>
<rect x="162" y="390" width="32" height="32" fill="#000018"/>
<rect x="130" y="390" width="32" height="32" fill="#0079a9"/>
<rect x="97" y="390" width="32" height="32" fill="#000751"/>
<rect x="32" y="390" width="32" height="32" fill="#00000f"/>
<rect x="0" y="390" width="32" height="32" fill="#00001e"/>
<rect x="487" y="357" width="32" height="32" fill="#000048"/>
<rect x="422" y="357" width="32" height="32" fill="#000043"/>
<rect x="390" y="357" width="32" height="32" fill="#0072a3"/>
<rect x="325" y="357" width="32" height="32" fill="#000025"/>
<rect x="292" y="357" width="32" height="32" fill="#00014b"/>
<rect x="227" y="357" width="32" height="32" fill="#00001c"/>
<rect x="195" y="357" width="32" height="32" fill="#000019"/>
<rect x="162" y="357" width="32" height="32" fill="#000037"/>
<rect x="97" y="357" width="32" height="32" fill="#00002a"/>
<rect x="32" y="357" width="32" height="32" fill="#000021"/>
<rect x="0" y="357" width="32" height="32" fill="#00003f"/>
<rect x="487" y="325" width="32" height="32" fill="#000040"/>
<rect x="422" y="325" width="32" height="32" fill="#000019"/>
<rect x="390" y="325" width="32" height="32" fill="#001258"/>
<rect x="357" y="325" width="32" height="32" fill="#000004"/>
<rect x="325" y="325" width="32" height="32" fill="#00000f"/>
<rect x="292" y="325" width="32" height="32" fill="#002e6f"/>
<rect x="227" y="325" width="32" height="32" fill="#000010"/>
<rect x="195" y="325" width="32" height="32" fill="#00002e"/>
<rect x="162" y="325" width="32" height="32" fill="#00001e"/>
<rect x="97" y="325" width="32" height="32" fill="#00003a"/>
<rect x="32" y="325" width="32" height="32" fill="#000009"/>
<rect x="487" y="292" width="32" height="32" fill="#001e61"/>
<rect x="422" y="292" width="32" height="32" fill="#000027"/>
<rect x="390" y="292" width="32" height="32" fill="#000027"/>
<rect x="357" y="292" width="32" height="32" fill="#000009"/>
<rect x="325" y="292" width="32" height="32" fill="#000010"/>
<rect x="292" y="292" width="32" height="32" fill="#000951"/>
<rect x="227" y="292" width="32" height="32" fill="#000010"/>
<rect x="195" y="292" width="32" height="32" fill="#000019"/>
<rect x="162" y="292" width="32" height="32" fill="#00001f"/>
<rect x="97" y="292" width="32" height="32" fill="#000019"/>
<rect x="487" y="260" width="32" height="32" fill="#00003f"/>
<rect x="390" y="260" width="32" height="32" fill="#000025"/>
<rect x="357" y="260" width="32" height="32" fill="#00000a"/>
<rect x="325" y="260" width="32" height="32" fill="#000004"/>
<rect x="292" y="260" width="32" height="32" fill="#000028"/>
<rect x="195" y="260" width="32" height="32" fill="#000015"/>
<rect x="162" y="260" width="32" height="32" fill="#000003"/>
<rect x="97" y="260" width="32" height="32" fill="#000039"/>
<rect x="487" y="227" width="32" height="32" fill="#000036"/>
<rect x="390" y="227" width="32" height="32" fill="#000022"/>
<rect x="357" y="227" width="32" height="32" fill="#000021"/>
<rect x="325" y="227" width="32" height="32" fill="#000009"/>
<rect x="292" y="227" width="32" height="32" fill="#000003"/>
<rect x="195" y="227" width="32" height="32" fill="#000013"/>
<rect x="162" y="227" width="32" height="32" fill="#000007"/>
<rect x="97" y="227" width="32" height="32" fill="#000027"/>
<rect x="487" y="195" width="32" height="32" fill="#000028"/>
<rect x="390" y="195" width="32" height="32" fill="#000004"/>
<rect x="357" y="195" width="32" height="32" fill="#00002d"/>
<rect x="292" y="195" width="32" height="32" fill="#000004"/>
<rect x="195" y="195" width="32" height="32" fill="#000016"/>
<rect x="97" y="195" width="32" height="32" fill="#000012"/>
<rect x="487" y="162" width="32" height="32" fill="#000010"/>
<rect x="357" y="162" width="32" height="32" fill="#000027"/>
<rect x="195" y="162" width="32" height="32" fill="#000009"/>
<rect x="97" y="162" width="32" height="32" fill="#000007"/>
<rect x="487" y="130" width="32" height="32" fill="#000018"/>
<rect x="357" y="130" width="32" height="32" fill="#000013"/>
<rect x="487" y="97" width="32" height="32" fill="#00001c"/>
<rect x="487" y="65" width="32" height="32" fill="#00001e"/>
</svg>